<svg xmlns="http://www.w3.org/2000/svg" viewBox="0 0 42.59 42.58">
  <g id="Layer_2" data-name="Layer 2" fill="currentColor">
    <g id="Layer_1-2" data-name="Layer 1">
      <g>
        <path d="M21.3,10.37A10.92,10.92,0,1,0,32.22,21.29,10.91,10.91,0,0,0,21.3,10.37Zm0,18a7.1,7.1,0,1,1,7.1-7.1A7.11,7.11,0,0,1,21.3,28.39Z"/>
        <path d="M42.44,12.51C42.28,9.1,41.5,6.08,39,3.59S33.49.32,30.08.15,16,0,12.51.15s-6.42.94-8.92,3.43S.32,9.09.15,12.5,0,26.56.15,30.07,1.09,36.51,3.59,39s5.51,3.26,8.92,3.43,14.05.2,17.57,0S36.51,41.49,39,39s3.27-5.52,3.44-8.93S42.64,16,42.44,12.51ZM37.9,33.85a7.15,7.15,0,0,1-4,4c-2.8,1.11-9.45.86-12.55.86s-9.76.25-12.55-.86a7.18,7.18,0,0,1-4-4C3.59,31,3.85,24.39,3.85,21.29S3.6,11.53,4.7,8.74a7.2,7.2,0,0,1,4.05-4c2.8-1.11,9.45-.85,12.55-.85s9.76-.25,12.55.85a7.2,7.2,0,0,1,4,4.05c1.11,2.8.86,9.45.86,12.55S39,31.05,37.9,33.85Z"/>
        <path d="M32.67,7.38a2.55,2.55,0,1,0,2.54,2.55A2.55,2.55,0,0,0,32.67,7.38Z"/>
      </g>
    </g>
  </g>
</svg>
