<svg xmlns="http://www.w3.org/2000/svg" viewBox="0 0 38.43 38.44">
  <g id="Layer_2" data-name="Layer 2" fill="currentColor">
    <g id="Layer_1-2" data-name="Layer 1">
      <path id="linkedin" d="M35.59,0a2.82,2.82,0,0,1,2.84,2.77V35.66a2.83,2.83,0,0,1-2.85,2.78H2.83A2.81,2.81,0,0,1,0,35.66V2.77A2.81,2.81,0,0,1,2.83,0ZM32.75,32.75v-10c0-4.94-1.06-8.74-6.84-8.74a6,6,0,0,0-5.39,3h-.08V14.41H15V32.75h5.69V23.68c0-2.39.45-4.71,3.42-4.71s3,2.73,3,4.86v8.92ZM11.4,14.41H5.69V32.75H11.4ZM8.55,5.29a3.31,3.31,0,1,0,3.3,3.31h0A3.31,3.31,0,0,0,8.55,5.29Z"/>
    </g>
  </g>
</svg>
