<svg xmlns="http://www.w3.org/2000/svg" viewBox="0 0 36.98 36.98">
    <path fill="currentColor" d="M36.16 32.85c-.55 1.29-2 2.13-3.2 2.79A10.05 10.05 0 0128.08 37c-2.45 0-4.65-1-6.88-1.82A23.89 23.89 0 0116.6 33 44.42 44.42 0 014 20.38a24.84 24.84 0 01-2.18-4.6C1 13.55 0 11.34 0 8.9A10 10 0 011.34 4C2 2.84 2.84 1.36 4.12.81A11.84 11.84 0 017.77 0a1.29 1.29 0 01.55.08c.55.18 1.13 1.47 1.4 2 .84 1.49 1.65 3 2.52 4.49.42.68 1.21 1.52 1.21 2.33 0 1.61-4.76 3.94-4.76 5.36a5.63 5.63 0 001 2.26 26.09 26.09 0 0010.77 10.74 5.6 5.6 0 002.26 1c1.42 0 3.75-4.75 5.36-4.75.81 0 1.65.79 2.33 1.21 1.47.87 3 1.68 4.49 2.52.53.26 1.81.84 2 1.39a1.34 1.34 0 01.08.55 11.45 11.45 0 01-.82 3.67z"></path>
  </svg>