<svg id="Layer_2" data-name="Layer 2" xmlns="http://www.w3.org/2000/svg" viewBox="0 0 33.60168 40.01577">
  <g id="Layer_1-2" data-name="Layer 1">
    <path id="Path_101" fill="currentColor" data-name="Path 101" d="m19.93187,31.12409s-5.27002.1537-5.76015-3.02264c0,0-1.95827,9.39808-4.5914,11.91432-.88238-.26784-1.74675-.59176-2.58783-.97,0,0-.90642-1.09716,0-5.40745l3.69124-13.91764s-2.51398-5.2087.62956-8.80131c1.36576-1.73548,3.87974-2.03537,5.61522-.66986.24907.196.47386.42079.66986.66986.69514,2.86994.24431,5.89758-1.25712,8.44035,0,0-2.87094,6.91464,3.2319,7.36171,0,0,4.57914.71767,7.005-6.73215,1.13997-3.43717,1.13997-7.15019,0-10.58736,0,0-2.69446-7.38224-12.84101-5.03848,0,0-13.12412,4.23244-7.14443,17.1125,0,0,1.49492,3.09248-1.56051,3.09248,0,0-4.94411-.35896-5.03222-9.06791C.38675,8.23091,5.5589,2.10453,12.66052.50423c0,0,15.9848-3.86146,20.47357,9.78758-.00225.00175,4.30829,19.75565-13.20222,20.83228Z"/>
  </g>
</svg>