<svg xmlns="http://www.w3.org/2000/svg" viewBox="0 0 35.7123 41.8291">
  <g id="Layer_2" data-name="Layer 2" fill="currentColor">
    <g id="Layer_1-2" data-name="Layer 1">
      <path d="M32.26606,14.06055a17.81187,17.81187,0,0,0-13.75763-7.759l3.741-3.741a1.49984,1.49984,0,0,0-2.1211-2.1211L12.478,8.08984l7.65039,7.65039a1.49984,1.49984,0,0,0,2.1211-2.12109L17.91975,9.28943a14.80066,14.80066,0,0,1,11.89416,6.49963,14.5852,14.5852,0,0,1,.93262,15.99805,14.64528,14.64528,0,0,1-13.1709,7.03809A14.64819,14.64819,0,0,1,4.71674,31.22168,15.25812,15.25812,0,0,1,9.62836,11.76855,1.49969,1.49969,0,1,0,7.95942,9.27637,18.0924,18.0924,0,0,0,2.07319,32.63965a17.61239,17.61239,0,0,0,15.43848,9.18457c.14355.00293.28613.00488.42871.00488A17.35305,17.35305,0,0,0,32.26606,14.06055Z"/>
    </g>
  </g>
</svg>
