<svg xmlns="http://www.w3.org/2000/svg" viewBox="0 0 44.06 38.17">
  <g id="Layer_2" data-name="Layer 2" fill="currentColor">
    <g id="Layer_1-2" data-name="Layer 1">
      <path id="Vimeo" d="M37.62,0Q28.42-.31,25.18,10.32a8.51,8.51,0,0,1,3.26-.69q3.35,0,3,3.76a17.2,17.2,0,0,1-3,6.65q-2.76,4.37-4.14,4.36-1.78,0-3.27-6.75-.5-2-1.77-10.12Q18.06,0,12.94.49a14.52,14.52,0,0,0-6.51,4Q3.27,7.33,0,10.21l2.07,2.67A13.67,13.67,0,0,1,5.53,10.8q2.26,0,4.25,7.14Q11.55,24.49,13.34,31c1.76,4.76,3.94,7.14,6.5,7.14q6.22,0,15.21-11.69,8.69-11.2,9-17.66Q44.43.22,37.62,0Z"/>
    </g>
  </g>
</svg>
